<svg xmlns="http://www.w3.org/2000/svg" xmlns:xlink="http://www.w3.org/1999/xlink" width="142.46" height="48.286" viewBox="0 0 142.46 48.286">
  <defs>
    <style>
      .cls-1 {
        fill: url(#linear-gradient);
      }

      .cls-2 {
        fill: url(#linear-gradient-2);
      }

      .cls-3 {
        fill: url(#linear-gradient-3);
      }

      .cls-4 {
        fill: #18263a;
      }

      .cls-5 {
        fill: #1b2c42;
      }

      .cls-6 {
        fill: #5f3d15;
      }
    </style>
    <linearGradient id="linear-gradient" x1="0.712" y1="0.913" x2="0.241" y2="0.094" gradientUnits="objectBoundingBox">
      <stop offset="0" stop-color="#c6790e"/>
      <stop offset="0.182" stop-color="#d09f00"/>
      <stop offset="0.403" stop-color="#ffd516"/>
      <stop offset="0.552" stop-color="#ffe94a"/>
      <stop offset="0.688" stop-color="#f3d70d"/>
      <stop offset="0.85" stop-color="#ffe000"/>
      <stop offset="1" stop-color="#ffe760"/>
    </linearGradient>
    <linearGradient id="linear-gradient-2" x1="0.933" y1="0.803" x2="0.074" y2="0.689" gradientUnits="objectBoundingBox">
      <stop offset="0" stop-color="#21c181"/>
      <stop offset="1" stop-color="#21c1a5"/>
    </linearGradient>
    <linearGradient id="linear-gradient-3" x1="0.032" y1="0" x2="0.933" y2="0.312" xlink:href="#linear-gradient-2"/>
  </defs>
  <g id="组_65977" data-name="组 65977" transform="translate(-17.793 -89)">
    <g id="元能场_源文件_" data-name="元能场 (源文件)" transform="translate(17.793 89)">
      <g id="shape_g42bgK8Bds" transform="translate(0 0)">
        <g id="组_65970" data-name="组 65970" transform="translate(0 0)">
          <g id="图层_1">
            <g id="组_65969" data-name="组 65969">
              <circle id="椭圆_535" data-name="椭圆 535" class="cls-1" cx="24.143" cy="24.143" r="24.143"/>
              <path id="路径_33105" data-name="路径 33105" class="cls-2" d="M90.835,23.3a25.2,25.2,0,0,0-1.968-3.835c.908-2.5.807-4.39-.479-5.222-3.835-2.523-12.614-.58-23.992,3.784a3.482,3.482,0,0,0-1.009,1.009,5.839,5.839,0,0,0-.4,2.649c-.2-.732-.278-1.413-1.06-1.791a4.314,4.314,0,0,0-2.624.2,4.877,4.877,0,0,0,2.144-1.842,8.809,8.809,0,0,0,.227-3.456s.58,2.17,1.413,2.649a2.256,2.256,0,0,0,1.539.05c12.791-5.449,23.008-8.981,27.322-4.188C93.812,15.408,93.257,19.041,90.835,23.3Z" transform="translate(-44.34 -8.269)"/>
              <path id="路径_33106" data-name="路径 33106" class="cls-3" d="M40.009,144.994a3.8,3.8,0,0,0-1.665,1.413,6.943,6.943,0,0,0-.177,2.649s-.454-1.64-1.085-2.018a2.022,2.022,0,0,0-1.388.025c-12.917,5.474-23.26,9.082-27.6,4.263-1.64-1.816-1.413-4.844.3-8.426a24.639,24.639,0,0,0,2.4,3.582c-.429,1.842-.177,3.229.883,3.936,3.936,2.6,12.992.479,24.723-4.062a2.276,2.276,0,0,0,.479-.53,4.414,4.414,0,0,0,.3-2.018c.151.555.227,1.085.807,1.362A3.52,3.52,0,0,0,40.009,144.994Z" transform="translate(-5.22 -106.849)"/>
            </g>
          </g>
        </g>
      </g>
      <g id="shape_SjdNyJF7ar" transform="translate(52.978 9.896)">
        <g id="组_65973" data-name="组 65973" transform="translate(0)">
          <g id="组_65972" data-name="组 65972">
            <g id="组_65971" data-name="组 65971">
              <path id="路径_33107" data-name="路径 33107" class="cls-4" d="M2.811-51.665,7.439-61.856H2.17v-2.756h23.4v2.756H19.85v6.9a.8.8,0,0,0,.239.587.8.8,0,0,0,.59.242H25.6l-1.2,2.487H18.834a2.626,2.626,0,0,1-1.057-.215,2.7,2.7,0,0,1-.856-.573,2.785,2.785,0,0,1-.576-.842,2.559,2.559,0,0,1-.212-1.044h0v-7.544H11.344L6.716-51.665Zm.266-16.449V-70.87H24.666v2.756Z" transform="translate(-2.17 71.003)"/>
              <path id="路径_33108" data-name="路径 33108" class="cls-4" d="M13.883-53.625h.429a.233.233,0,0,0,.212-.082h0q0-.027.082-.106h0l.054-.133v-1.419H9.016v.91l-.59,2.593H5.51l.508-2.593V-64.726H15.54a2.213,2.213,0,0,1,1.62.682,2.21,2.21,0,0,1,.682,1.617h0v8.4a2.639,2.639,0,0,1-.16,1.016h0a2.216,2.216,0,0,1-.481.7h0a1.364,1.364,0,0,1-.535.375h0a2.485,2.485,0,0,1-.59.079H13.133Zm9.362-10.941h6.019l-1.2,2.381H21.478a2.379,2.379,0,0,1-.962-.188h0a2.086,2.086,0,0,1-.829-.535h0a2.116,2.116,0,0,1-.535-.8h0a2.533,2.533,0,0,1-.215-.989h0v-6.473h3.478v3.636l2.622-3.343h3.476l-4.359,5.484H22.416a1.025,1.025,0,0,0,.215.614h0a1.025,1.025,0,0,0,.614.215Zm0,9.976h6.019l-1.2,2.356H21.478a2.261,2.261,0,0,1-.962-.188h0a1.64,1.64,0,0,1-.44-.228q-.2-.147-.389-.307h0a1.868,1.868,0,0,1-.535-.8h0a2.422,2.422,0,0,1-.215-.992h0v-6.419h3.478v3.639l2.622-3.4h3.476l-4.359,5.508H22.416a.8.8,0,0,0,.215.59h0a.961.961,0,0,0,.614.239ZM5.939-65.716,8.4-71.36H11.85l-1.579,3.343h3.8l-.59-1.5h3.291l1.47,3.772H16.29v.027Zm3.076,8.291H14.66v-1.47H9.016ZM13.8-62.373H9.016v1.419H14.66v-.563a.816.816,0,0,0-.255-.6.822.822,0,0,0-.6-.255Z" transform="translate(20.007 71.36)"/>
              <path id="路径_33109" data-name="路径 33109" class="cls-4" d="M8.026-65.852v11.473h2.622v2.622H2.17v-2.622H4.79V-65.852H2.276v-2.6H4.79v-2.193H8.026v2.193h2.541v2.6Zm14.256-.4H25.6v12.52a1.948,1.948,0,0,1-.576,1.416,1.881,1.881,0,0,1-1.4.59H19.663l1.15-2.622h.91a.521.521,0,0,0,.4-.174.589.589,0,0,0,.16-.413h0v-8.693h-.962l-2.7,11.449H15.464l2.7-11.449H16.989L14.206-52.183H11.075l2.783-11.449H12.013v-2.622l5.856-2.193H11.986V-71.07H25.307v2.622H25.28l-5.938,2.193Z" transform="translate(49.188 71.149)"/>
            </g>
          </g>
        </g>
      </g>
      <g id="shape_VnSLFskDjq" transform="translate(52.978 36.38)">
        <g id="组_65976" data-name="组 65976" transform="translate(0 0)">
          <g id="组_65975" data-name="组 65975">
            <g id="组_65974" data-name="组 65974">
              <path id="路径_33110" data-name="路径 33110" class="cls-5" d="M1.86-12.056H4.882V-13.3H3.01v-1.248H4.689v-1.227H3.01v-1.167H4.844V-18.19H1.86Z" transform="translate(-1.86 18.266)"/>
              <path id="路径_33111" data-name="路径 33111" class="cls-5" d="M4.689-12.056V-13.3H3.01V-18.19H1.86v6.134Z" transform="translate(1.901 18.266)"/>
              <path id="路径_33112" data-name="路径 33112" class="cls-5" d="M1.86-12.056H4.882V-13.3H3.01v-1.248H4.689v-1.227H3.01v-1.167H4.844V-18.19H1.86Z" transform="translate(5.273 18.266)"/>
              <path id="路径_33113" data-name="路径 33113" class="cls-5" d="M5.416-18.19H5.074L3.856-15.253l-1.1-2.539a.6.6,0,0,0-.271-.347h0a.747.747,0,0,0-.3-.051H1.58v6.134H2.589V-15.89L3.427-13.8h.684l.9-2.2v3.942h1.1v-5.311q0-.658-.4-.782h0A1.044,1.044,0,0,0,5.416-18.19Z" transform="translate(9.237 18.266)"/>
              <path id="路径_33114" data-name="路径 33114" class="cls-5" d="M1.86-12.056H4.882V-13.3H3.01v-1.248H4.689v-1.227H3.01v-1.167H4.844V-18.19H1.86Z" transform="translate(14.426 18.266)"/>
              <path id="路径_33115" data-name="路径 33115" class="cls-5" d="M2.565-15.735l2,3.679h.817V-18.19H4.4v3.679L2.386-18.19H1.58v6.134h.985Z" transform="translate(18.39 18.266)"/>
              <path id="路径_33116" data-name="路径 33116" class="cls-5" d="M1.26-12.056h1.15v-4.886H3.528V-18.19H.14v1.248H1.26Z" transform="translate(24.102 18.266)"/>
              <path id="路径_33117" data-name="路径 33117" class="cls-5" d="M3.33-12.163H4.473L3.434-18.288l-1.12-.047a.86.86,0,0,0-.83.327h0a2.662,2.662,0,0,0-.274.832h0L.2-12.163H1.272l.25-1.36H3.113ZM1.746-14.749l.4-2.178q.038-.125.109-.135h.3l.366,2.313Z" transform="translate(27.523 18.373)"/>
              <path id="路径_33118" data-name="路径 33118" class="cls-5" d="M2-12.16H3.15v-2.188h.77q.084,0,.117.1h0a.451.451,0,0,1,.016.051h0l.534,2.034h1.15l-.48-1.7a1.351,1.351,0,0,0-.412-.694h0a1.5,1.5,0,0,0,.684-1.283h0q.008-.088.008-.165h0v-.744a1.43,1.43,0,0,0-.779-1.475h0a1.568,1.568,0,0,0-.659-.114h0L2-18.284Zm1.15-4.929H4.262a.13.13,0,0,1,.109.135h0v1.236q-.016.125-.109.135H3.15Z" transform="translate(30.578 18.37)"/>
              <path id="路径_33119" data-name="路径 33119" class="cls-5" d="M1.665-12.056h1.15v-2.134a.767.767,0,0,0,.488-.462h0q.079-.185.187-.543h0l.884-2.994H3.233l-.746,2.677q-.038.125-.125.125H2.2a.16.16,0,0,1-.122-.125h0L1.344-18.19H.14l.855,2.984a1.748,1.748,0,0,0,.453.87h0a.7.7,0,0,0,.217.115h0Z" transform="translate(36.371 18.266)"/>
              <path id="路径_33120" data-name="路径 33120" class="cls-5" transform="translate(40.8 6.21)"/>
              <path id="路径_33121" data-name="路径 33121" class="cls-5" d="M1.86-12.056H4.882V-13.3H3.01v-1.248H4.689v-1.227H3.01v-1.167H4.844V-18.19H1.86Z" transform="translate(42.612 18.266)"/>
              <path id="路径_33122" data-name="路径 33122" class="cls-5" d="M2.565-15.735l2,3.679h.817V-18.19H4.4v3.679L2.386-18.19H1.58v6.134h.985Z" transform="translate(46.576 18.266)"/>
              <path id="路径_33123" data-name="路径 33123" class="cls-5" d="M1.86-12.056H4.882V-13.3H3.01v-1.248H4.689v-1.227H3.01v-1.167H4.844V-18.19H1.86Z" transform="translate(51.034 18.266)"/>
              <path id="路径_33124" data-name="路径 33124" class="cls-5" d="M2-12.16H3.15v-2.188h.77q.084,0,.117.1h0a.451.451,0,0,1,.016.051h0l.534,2.034h1.15l-.48-1.7a1.351,1.351,0,0,0-.412-.694h0a1.5,1.5,0,0,0,.684-1.283h0q.008-.088.008-.165h0v-.744a1.43,1.43,0,0,0-.779-1.475h0a1.568,1.568,0,0,0-.659-.114h0L2-18.284Zm1.15-4.929H4.262a.13.13,0,0,1,.109.135h0v1.236q-.016.125-.109.135H3.15Z" transform="translate(54.693 18.37)"/>
              <path id="路径_33125" data-name="路径 33125" class="cls-5" d="M2.977-12.182h.738q1.392-.02,1.4-1.539h0v-1.994H3.482v1.18h.545v.942q-.016.124-.109.134H2.852a.13.13,0,0,1-.109-.134h0v-3.466q.016-.127.109-.134H5.014V-18.47H2.977q-1.392.017-1.4,1.535h0v3.215q.014,1.529,1.4,1.539Z" transform="translate(59.436 18.47)"/>
              <path id="路径_33126" data-name="路径 33126" class="cls-5" d="M1.665-12.056h1.15v-2.134a.767.767,0,0,0,.488-.462h0q.079-.185.187-.543h0l.884-2.994H3.233l-.746,2.677q-.038.125-.125.125H2.2a.16.16,0,0,1-.122-.125h0L1.344-18.19H.14l.855,2.984a1.748,1.748,0,0,0,.453.87h0a.7.7,0,0,0,.217.115h0Z" transform="translate(64.797 18.266)"/>
              <path id="路径_33127" data-name="路径 33127" class="cls-5" transform="translate(69.227 6.21)"/>
              <path id="路径_33128" data-name="路径 33128" class="cls-5" d="M4.611-14.461v-1.227H3.01v-1.254H4.765V-18.19H1.86v6.134H3.01v-2.4Z" transform="translate(71.038 18.266)"/>
              <path id="路径_33129" data-name="路径 33129" class="cls-5" d="M2.15-12.056H3.3V-18.19H2.15Z" transform="translate(74.316 18.266)"/>
              <path id="路径_33130" data-name="路径 33130" class="cls-5" d="M1.86-12.056H4.882V-13.3H3.01v-1.248H4.689v-1.227H3.01v-1.167H4.844V-18.19H1.86Z" transform="translate(76.843 18.266)"/>
              <path id="路径_33131" data-name="路径 33131" class="cls-5" d="M4.689-12.056V-13.3H3.01V-18.19H1.86v6.134Z" transform="translate(80.603 18.266)"/>
              <path id="路径_33132" data-name="路径 33132" class="cls-5" d="M3.01-17.1H4.231a.127.127,0,0,1,.109.134h0v3.476q-.016.124-.109.134H3.01ZM1.86-18.283v6.115l2.208.047a1.233,1.233,0,0,0,1.413-1.2h0a2.877,2.877,0,0,0,.024-.383h0v-3.036q0-1.4-1.042-1.56h0a2.786,2.786,0,0,0-.4-.027h0Z" transform="translate(83.975 18.368)"/>
            </g>
          </g>
        </g>
      </g>
    </g>
    <path id="路径_33133" data-name="路径 33133" class="cls-6" d="M2.849-50.55l4.9-10.782H2.17v-2.916H26.932v2.916H20.877v7.3a.844.844,0,0,0,.253.621.849.849,0,0,0,.624.256h5.207l-1.274,2.631H19.8a2.779,2.779,0,0,1-1.118-.227,2.858,2.858,0,0,1-.906-.607,2.946,2.946,0,0,1-.61-.891,2.707,2.707,0,0,1-.224-1.1h0v-7.982H11.877L6.98-50.55Zm.282-17.4V-70.87H25.972v2.916Z" transform="translate(26.997 173.839)"/>
  </g>
</svg>
