<svg xmlns="http://www.w3.org/2000/svg" xmlns:xlink="http://www.w3.org/1999/xlink" width="33.295" height="33" viewBox="0 0 33.295 33">
  <defs>
    <style>
      .cls-1 {
        fill: url(#linear-gradient);
      }

      .cls-2 {
        fill: url(#linear-gradient-2);
      }

      .cls-3 {
        fill: url(#linear-gradient-3);
      }

      .cls-4 {
        fill: #5f3d15;
      }
    </style>
    <linearGradient id="linear-gradient" x1="0.712" y1="0.913" x2="0.241" y2="0.094" gradientUnits="objectBoundingBox">
      <stop offset="0" stop-color="#c6790e"/>
      <stop offset="0.182" stop-color="#d09f00"/>
      <stop offset="0.403" stop-color="#ffd516"/>
      <stop offset="0.552" stop-color="#ffe94a"/>
      <stop offset="0.688" stop-color="#f3d70d"/>
      <stop offset="0.85" stop-color="#ffe000"/>
      <stop offset="1" stop-color="#ffe760"/>
    </linearGradient>
    <linearGradient id="linear-gradient-2" x1="0.933" y1="0.803" x2="0.074" y2="0.689" gradientUnits="objectBoundingBox">
      <stop offset="0" stop-color="#21c181"/>
      <stop offset="1" stop-color="#21c1a5"/>
    </linearGradient>
    <linearGradient id="linear-gradient-3" x1="0.032" y1="0" x2="0.933" y2="0.312" xlink:href="#linear-gradient-2"/>
  </defs>
  <g id="组_65978" data-name="组 65978" transform="translate(-17.793 -89)">
    <g id="元能场_源文件_" data-name="元能场 (源文件)" transform="translate(-249.793 -84.854)">
      <g id="shape_g42bgK8Bds" transform="translate(267.586 173.854)">
        <g id="组_65970" data-name="组 65970" transform="translate(0 0)">
          <g id="图层_1">
            <g id="组_65969" data-name="组 65969">
              <circle id="椭圆_535" data-name="椭圆 535" class="cls-1" cx="16.5" cy="16.5" r="16.5"/>
              <path id="路径_33105" data-name="路径 33105" class="cls-2" d="M80.852,19.428a17.225,17.225,0,0,0-1.345-2.621c.621-1.707.552-3-.328-3.569-2.621-1.724-8.621-.4-16.4,2.586a2.38,2.38,0,0,0-.69.69,3.99,3.99,0,0,0-.276,1.81c-.138-.5-.19-.966-.724-1.224a2.948,2.948,0,0,0-1.793.138,3.333,3.333,0,0,0,1.466-1.259,6.021,6.021,0,0,0,.155-2.362s.4,1.483.966,1.81a1.542,1.542,0,0,0,1.052.034C71.679,11.738,78.662,9.324,81.61,12.6,82.886,14.031,82.507,16.514,80.852,19.428Z" transform="translate(-49.076 -9.152)"/>
              <path id="路径_33106" data-name="路径 33106" class="cls-3" d="M29.554,144.331a2.6,2.6,0,0,0-1.138.966,4.745,4.745,0,0,0-.121,1.81s-.31-1.121-.741-1.379a1.382,1.382,0,0,0-.948.017c-8.828,3.741-15.9,6.207-18.862,2.914-1.121-1.241-.966-3.31.207-5.759a16.839,16.839,0,0,0,1.638,2.448c-.293,1.259-.121,2.207.6,2.69,2.69,1.776,8.879.328,16.9-2.776a1.556,1.556,0,0,0,.328-.362,3.016,3.016,0,0,0,.207-1.379c.1.379.155.741.552.931A2.4,2.4,0,0,0,29.554,144.331Z" transform="translate(-5.778 -118.262)"/>
            </g>
          </g>
        </g>
      </g>
    </g>
    <path id="路径_33133" data-name="路径 33133" class="cls-4" d="M2.634-56.983,5.98-64.352H2.17v-1.993H19.093v1.993H14.955v4.991a.577.577,0,0,0,.173.424.58.58,0,0,0,.426.175h3.559l-.871,1.8H14.22a1.9,1.9,0,0,1-.764-.155,1.953,1.953,0,0,1-.619-.415,2.014,2.014,0,0,1-.417-.609,1.85,1.85,0,0,1-.153-.755h0v-5.455H8.8L5.458-56.983Zm.193-11.894V-70.87h15.61v1.993Z" transform="translate(23.396 169.417)"/>
  </g>
</svg>
