<svg xmlns="http://www.w3.org/2000/svg" xmlns:xlink="http://www.w3.org/1999/xlink" width="97.361" height="33" viewBox="0 0 97.361 33">
  <defs>
    <style>
      .cls-1 {
        fill: url(#linear-gradient);
      }

      .cls-2 {
        fill: url(#linear-gradient-2);
      }

      .cls-3 {
        fill: url(#linear-gradient-3);
      }

      .cls-4 {
        fill: #18263a;
      }

      .cls-5 {
        fill: #1b2c42;
      }

      .cls-6 {
        fill: #5f3d15;
      }
    </style>
    <linearGradient id="linear-gradient" x1="0.712" y1="0.913" x2="0.241" y2="0.094" gradientUnits="objectBoundingBox">
      <stop offset="0" stop-color="#c6790e"/>
      <stop offset="0.182" stop-color="#d09f00"/>
      <stop offset="0.403" stop-color="#ffd516"/>
      <stop offset="0.552" stop-color="#ffe94a"/>
      <stop offset="0.688" stop-color="#f3d70d"/>
      <stop offset="0.85" stop-color="#ffe000"/>
      <stop offset="1" stop-color="#ffe760"/>
    </linearGradient>
    <linearGradient id="linear-gradient-2" x1="0.933" y1="0.803" x2="0.074" y2="0.689" gradientUnits="objectBoundingBox">
      <stop offset="0" stop-color="#21c181"/>
      <stop offset="1" stop-color="#21c1a5"/>
    </linearGradient>
    <linearGradient id="linear-gradient-3" x1="0.032" y1="0" x2="0.933" y2="0.312" xlink:href="#linear-gradient-2"/>
  </defs>
  <g id="组_65977" data-name="组 65977" transform="translate(-17.793 -89)">
    <g id="元能场_源文件_" data-name="元能场 (源文件)" transform="translate(-249.793 -84.854)">
      <g id="shape_g42bgK8Bds" transform="translate(267.586 173.854)">
        <g id="组_65970" data-name="组 65970" transform="translate(0 0)">
          <g id="图层_1">
            <g id="组_65969" data-name="组 65969">
              <circle id="椭圆_535" data-name="椭圆 535" class="cls-1" cx="16.5" cy="16.5" r="16.5"/>
              <path id="路径_33105" data-name="路径 33105" class="cls-2" d="M80.852,19.428a17.225,17.225,0,0,0-1.345-2.621c.621-1.707.552-3-.328-3.569-2.621-1.724-8.621-.4-16.4,2.586a2.38,2.38,0,0,0-.69.69,3.99,3.99,0,0,0-.276,1.81c-.138-.5-.19-.966-.724-1.224a2.948,2.948,0,0,0-1.793.138,3.333,3.333,0,0,0,1.466-1.259,6.021,6.021,0,0,0,.155-2.362s.4,1.483.966,1.81a1.542,1.542,0,0,0,1.052.034C71.679,11.738,78.662,9.324,81.61,12.6,82.886,14.031,82.507,16.514,80.852,19.428Z" transform="translate(-49.076 -9.152)"/>
              <path id="路径_33106" data-name="路径 33106" class="cls-3" d="M29.554,144.331a2.6,2.6,0,0,0-1.138.966,4.745,4.745,0,0,0-.121,1.81s-.31-1.121-.741-1.379a1.382,1.382,0,0,0-.948.017c-8.828,3.741-15.9,6.207-18.862,2.914-1.121-1.241-.966-3.31.207-5.759a16.839,16.839,0,0,0,1.638,2.448c-.293,1.259-.121,2.207.6,2.69,2.69,1.776,8.879.328,16.9-2.776a1.556,1.556,0,0,0,.328-.362,3.016,3.016,0,0,0,.207-1.379c.1.379.155.741.552.931A2.4,2.4,0,0,0,29.554,144.331Z" transform="translate(-5.778 -118.262)"/>
            </g>
          </g>
        </g>
      </g>
      <g id="shape_SjdNyJF7ar" transform="translate(303.793 180.616)">
        <g id="组_65973" data-name="组 65973" transform="translate(0)">
          <g id="组_65972" data-name="组 65972">
            <g id="组_65971" data-name="组 65971">
              <path id="路径_33107" data-name="路径 33107" class="cls-4" d="M2.608-57.745,5.771-64.71H2.17v-1.883H18.165v1.883H14.253v4.717a.545.545,0,0,0,.163.4.548.548,0,0,0,.4.165h3.363l-.823,1.7h-3.8a1.8,1.8,0,0,1-.722-.147,1.846,1.846,0,0,1-.585-.392,1.9,1.9,0,0,1-.394-.576,1.749,1.749,0,0,1-.145-.713h0V-64.71H8.44L5.277-57.745ZM2.79-68.987V-70.87H17.544v1.883Z" transform="translate(-2.17 70.961)"/>
              <path id="路径_33108" data-name="路径 33108" class="cls-4" d="M11.232-59.24h.293a.16.16,0,0,0,.145-.056h0q0-.019.056-.072h0l.037-.091v-.969H7.906v.622l-.4,1.772H5.51l.347-1.772v-7.02h6.508a1.512,1.512,0,0,1,1.107.466,1.51,1.51,0,0,1,.466,1.105h0v5.741a1.8,1.8,0,0,1-.11.695h0a1.514,1.514,0,0,1-.329.475h0a.932.932,0,0,1-.366.256h0a1.7,1.7,0,0,1-.4.054H10.72Zm6.4-7.477h4.114l-.823,1.627h-4.5a1.626,1.626,0,0,1-.657-.128h0a1.426,1.426,0,0,1-.566-.366h0a1.446,1.446,0,0,1-.366-.548h0a1.731,1.731,0,0,1-.147-.676h0v-4.424h2.377v2.485l1.792-2.284h2.375l-2.979,3.748H17.064a.7.7,0,0,0,.147.42h0a.7.7,0,0,0,.42.147Zm0,6.818h4.114l-.823,1.61h-4.5a1.545,1.545,0,0,1-.657-.128h0a1.121,1.121,0,0,1-.3-.156q-.137-.1-.266-.21h0a1.276,1.276,0,0,1-.366-.548h0a1.655,1.655,0,0,1-.147-.678h0V-64.4h2.377v2.487l1.792-2.322h2.375l-2.979,3.765H17.064a.545.545,0,0,0,.147.4h0a.656.656,0,0,0,.42.163ZM5.8-67.5,7.484-71.36H9.843L8.764-69.076h2.6l-.4-1.023h2.249l1,2.578H12.878v.019Zm2.1,5.666h3.857v-1H7.906Zm3.272-3.382H7.906v.969h3.857v-.384a.558.558,0,0,0-.175-.41.562.562,0,0,0-.41-.175Z" transform="translate(11.929 71.36)"/>
              <path id="路径_33109" data-name="路径 33109" class="cls-4" d="M6.172-67.5v7.841H7.965v1.792H2.17v-1.792H3.96V-67.5H2.242v-1.774H3.96v-1.5H6.172v1.5H7.909V-67.5Zm9.743-.275h2.268v8.556a1.331,1.331,0,0,1-.394.968,1.285,1.285,0,0,1-.958.4H14.125l.786-1.792h.622a.356.356,0,0,0,.273-.119.4.4,0,0,0,.11-.282h0v-5.941h-.657l-1.846,7.825H11.256L13.1-65.987h-.8l-1.9,7.825H8.256l1.9-7.825H8.9v-1.792l4-1.5H8.878V-71.07h9.1v1.792h-.019l-4.058,1.5Z" transform="translate(32.929 71.124)"/>
            </g>
          </g>
        </g>
      </g>
      <g id="shape_VnSLFskDjq" transform="translate(303.793 198.717)">
        <g id="组_65976" data-name="组 65976" transform="translate(0 0)">
          <g id="组_65975" data-name="组 65975">
            <g id="组_65974" data-name="组 65974">
              <path id="路径_33110" data-name="路径 33110" class="cls-5" d="M1.86-14H3.925v-.85H2.646V-15.7H3.794v-.839H2.646v-.8H3.9v-.853H1.86Z" transform="translate(-1.86 18.242)"/>
              <path id="路径_33111" data-name="路径 33111" class="cls-5" d="M3.794-14v-.85H2.646V-18.19H1.86V-14Z" transform="translate(0.71 18.242)"/>
              <path id="路径_33112" data-name="路径 33112" class="cls-5" d="M1.86-14H3.925v-.85H2.646V-15.7H3.794v-.839H2.646v-.8H3.9v-.853H1.86Z" transform="translate(3.015 18.242)"/>
              <path id="路径_33113" data-name="路径 33113" class="cls-5" d="M4.2-18.19H3.968l-.832,2.007-.749-1.735a.413.413,0,0,0-.185-.237h0A.511.511,0,0,0,2-18.19H1.58V-14h.69v-2.62l.573,1.427H3.31l.617-1.5V-14H4.68v-3.63q0-.449-.271-.535h0A.713.713,0,0,0,4.2-18.19Z" transform="translate(5.813 18.242)"/>
              <path id="路径_33114" data-name="路径 33114" class="cls-5" d="M1.86-14H3.925v-.85H2.646V-15.7H3.794v-.839H2.646v-.8H3.9v-.853H1.86Z" transform="translate(9.27 18.242)"/>
              <path id="路径_33115" data-name="路径 33115" class="cls-5" d="M2.253-16.512,3.623-14h.558V-18.19H3.506v2.514L2.131-18.19H1.58V-14h.673Z" transform="translate(12.068 18.242)"/>
              <path id="路径_33116" data-name="路径 33116" class="cls-5" d="M.906-14h.786v-3.339h.764v-.853H.14v.853H.906Z" transform="translate(16.427 18.242)"/>
              <path id="路径_33117" data-name="路径 33117" class="cls-5" d="M2.339-14.118H3.12L2.41-18.3l-.766-.032a.588.588,0,0,0-.567.223h0a1.819,1.819,0,0,0-.187.568h0L.2-14.118H.932l.171-.93H2.191ZM1.257-15.885l.276-1.489q.026-.085.074-.092h.2l.25,1.581Z" transform="translate(18.747 18.362)"/>
              <path id="路径_33118" data-name="路径 33118" class="cls-5" d="M2-14.114h.786v-1.5h.527q.057,0,.08.071h0A.308.308,0,0,1,3.4-15.5h0l.365,1.39h.786l-.328-1.16a.923.923,0,0,0-.282-.474h0a1.028,1.028,0,0,0,.467-.877h0q.006-.06.006-.113h0v-.509a.977.977,0,0,0-.532-1.008h0a1.071,1.071,0,0,0-.451-.078h0L2-18.3Zm.786-3.369h.76a.089.089,0,0,1,.074.092h0v.844q-.011.085-.074.092h-.76Z" transform="translate(20.265 18.358)"/>
              <path id="路径_33119" data-name="路径 33119" class="cls-5" d="M1.182-14h.786v-1.459a.524.524,0,0,0,.334-.316h0q.054-.127.128-.371h0l.6-2.046H2.253l-.51,1.83q-.026.085-.085.085H1.547a.109.109,0,0,1-.083-.085h0l-.5-1.83H.14l.584,2.04a1.2,1.2,0,0,0,.31.595h0a.478.478,0,0,0,.148.078h0Z" transform="translate(24.812 18.242)"/>
              <path id="路径_33120" data-name="路径 33120" class="cls-5" transform="translate(27.884 4.244)"/>
              <path id="路径_33121" data-name="路径 33121" class="cls-5" d="M1.86-14H3.925v-.85H2.646V-15.7H3.794v-.839H2.646v-.8H3.9v-.853H1.86Z" transform="translate(28.533 18.242)"/>
              <path id="路径_33122" data-name="路径 33122" class="cls-5" d="M2.253-16.512,3.623-14h.558V-18.19H3.506v2.514L2.131-18.19H1.58V-14h.673Z" transform="translate(31.331 18.242)"/>
              <path id="路径_33123" data-name="路径 33123" class="cls-5" d="M1.86-14H3.925v-.85H2.646V-15.7H3.794v-.839H2.646v-.8H3.9v-.853H1.86Z" transform="translate(34.289 18.242)"/>
              <path id="路径_33124" data-name="路径 33124" class="cls-5" d="M2-14.114h.786v-1.5h.527q.057,0,.08.071h0A.308.308,0,0,1,3.4-15.5h0l.365,1.39h.786l-.328-1.16a.923.923,0,0,0-.282-.474h0a1.028,1.028,0,0,0,.467-.877h0q.006-.06.006-.113h0v-.509a.977.977,0,0,0-.532-1.008h0a1.071,1.071,0,0,0-.451-.078h0L2-18.3Zm.786-3.369h.76a.089.089,0,0,1,.074.092h0v.844q-.011.085-.074.092h-.76Z" transform="translate(36.745 18.358)"/>
              <path id="路径_33125" data-name="路径 33125" class="cls-5" d="M2.535-14.172h.5q.951-.014.957-1.051H4v-1.363H2.88v.806h.373v.644q-.011.085-.074.092H2.45a.089.089,0,0,1-.074-.092h0v-2.369q.011-.087.074-.092H3.927v-.873H2.535q-.951.011-.955,1.049h0v2.2q.009,1.045.955,1.051Z" transform="translate(40.12 18.47)"/>
              <path id="路径_33126" data-name="路径 33126" class="cls-5" d="M1.182-14h.786v-1.459a.524.524,0,0,0,.334-.316h0q.054-.127.128-.371h0l.6-2.046H2.253l-.51,1.83q-.026.085-.085.085H1.547a.109.109,0,0,1-.083-.085h0l-.5-1.83H.14l.584,2.04a1.2,1.2,0,0,0,.31.595h0a.478.478,0,0,0,.148.078h0Z" transform="translate(44.24 18.242)"/>
              <path id="路径_33127" data-name="路径 33127" class="cls-5" transform="translate(47.312 4.244)"/>
              <path id="路径_33128" data-name="路径 33128" class="cls-5" d="M3.74-15.641v-.839H2.646v-.857h1.2v-.853H1.86V-14h.786v-1.643Z" transform="translate(47.961 18.242)"/>
              <path id="路径_33129" data-name="路径 33129" class="cls-5" d="M2.15-14h.786V-18.19H2.15Z" transform="translate(50.109 18.242)"/>
              <path id="路径_33130" data-name="路径 33130" class="cls-5" d="M1.86-14H3.925v-.85H2.646V-15.7H3.794v-.839H2.646v-.8H3.9v-.853H1.86Z" transform="translate(51.927 18.242)"/>
              <path id="路径_33131" data-name="路径 33131" class="cls-5" d="M3.794-14v-.85H2.646V-18.19H1.86V-14Z" transform="translate(54.497 18.242)"/>
              <path id="路径_33132" data-name="路径 33132" class="cls-5" d="M2.646-17.487H3.48a.087.087,0,0,1,.074.092h0v2.376q-.011.085-.074.092H2.646ZM1.86-18.3v4.179l1.509.032a.843.843,0,0,0,.966-.823h0a1.966,1.966,0,0,0,.017-.262h0v-2.075q0-.954-.712-1.066h0a1.9,1.9,0,0,0-.271-.018h0Z" transform="translate(56.802 18.356)"/>
            </g>
          </g>
        </g>
      </g>
    </g>
    <path id="路径_33133" data-name="路径 33133" class="cls-6" d="M2.634-56.983,5.98-64.352H2.17v-1.993H19.093v1.993H14.955v4.991a.577.577,0,0,0,.173.424.58.58,0,0,0,.426.175h3.559l-.871,1.8H14.22a1.9,1.9,0,0,1-.764-.155,1.953,1.953,0,0,1-.619-.415,2.014,2.014,0,0,1-.417-.609,1.85,1.85,0,0,1-.153-.755h0v-5.455H8.8L5.458-56.983Zm.193-11.894V-70.87h15.61v1.993Z" transform="translate(23.396 169.417)"/>
  </g>
</svg>
