<svg xmlns="http://www.w3.org/2000/svg" width="313.478" height="17.875" viewBox="0 0 313.478 17.875">
  <defs>
    <style>
      .cls-1 {
        opacity: 0.136;
      }

      .cls-2 {
        fill: #fafbfa;
        stroke: #fbfbfb;
        stroke-width: 0.049px;
      }
    </style>
  </defs>
  <g id="shape_VnSLFskDjq" class="cls-1" transform="translate(-31.521 -94.495)">
    <g id="组_65976" data-name="组 65976" transform="translate(31.546 94.52)">
      <g id="组_65975" data-name="组 65975">
        <g id="组_65974" data-name="组 65974" transform="translate(0)">
          <path id="路径_33110" data-name="路径 33110" class="cls-2" d="M1.86-.906H12.445V-4.412H5.889V-7.928h5.882v-3.459H5.889v-3.288h6.423V-18.19H1.86Z" transform="translate(-1.86 18.456)"/>
          <path id="路径_33111" data-name="路径 33111" class="cls-2" d="M11.771-.906V-4.412H5.889V-18.19H1.86V-.906Z" transform="translate(11.313 18.456)"/>
          <path id="路径_33112" data-name="路径 33112" class="cls-2" d="M1.86-.906H12.445V-4.412H5.889V-7.928h5.882v-3.459H5.889v-3.288h6.423V-18.19H1.86Z" transform="translate(23.124 18.456)"/>
          <path id="路径_33113" data-name="路径 33113" class="cls-2" d="M15.016-18.19h-1.2L9.552-9.914,5.713-17.069a1.844,1.844,0,0,0-.95-.979h0a3.189,3.189,0,0,0-1.036-.143H1.58V-.906H5.115v-10.8L8.051-5.828h2.394l3.164-6.186V-.906h3.858V-15.872q0-1.853-1.387-2.2h0A4.493,4.493,0,0,0,15.016-18.19Z" transform="translate(36.311 18.456)"/>
          <path id="路径_33114" data-name="路径 33114" class="cls-2" d="M1.86-.906H12.445V-4.412H5.889V-7.928h5.882v-3.459H5.889v-3.288h6.423V-18.19H1.86Z" transform="translate(55.185 18.456)"/>
          <path id="路径_33115" data-name="路径 33115" class="cls-2" d="M5.029-11.273,12.051-.906h2.86V-18.19H11.453V-7.823L4.4-18.19H1.58V-.906H5.029Z" transform="translate(68.371 18.456)"/>
          <path id="路径_33116" data-name="路径 33116" class="cls-2" d="M4.064-.906H8.093V-14.674h3.915V-18.19H.14v3.516H4.064Z" transform="translate(84.773 18.456)"/>
          <path id="路径_33117" data-name="路径 33117" class="cls-2" d="M11.165-.913h4L11.526-18.2,7.6-18.33a3.378,3.378,0,0,0-2.908.922h0a6.584,6.584,0,0,0-.96,2.347h0L.2-.913H3.953l.874-3.839h5.578Zm-5.549-7.3,1.416-6.148q.133-.352.38-.38H8.448L9.73-8.211Z" transform="translate(96.908 18.463)"/>
          <path id="路径_33118" data-name="路径 33118" class="cls-2" d="M2-.913H6.029V-7.089h2.7a.411.411,0,0,1,.409.295h0a1.106,1.106,0,0,1,.057.143h0L11.065-.913h4.029L13.412-5.7a3.787,3.787,0,0,0-1.444-1.957h0a4.12,4.12,0,0,0,2.394-3.62h0a4.072,4.072,0,0,0,.029-.466h0v-2.1a3.952,3.952,0,0,0-2.727-4.162h0a6.681,6.681,0,0,0-2.309-.323h0L2-18.2ZM6.029-14.824h3.9a.4.4,0,0,1,.38.38h0v3.487a.4.4,0,0,1-.38.38h-3.9Z" transform="translate(112.114 18.463)"/>
          <path id="路径_33119" data-name="路径 33119" class="cls-2" d="M5.48-.906H9.509V-6.921a2.541,2.541,0,0,0,1.71-1.3h0a14.307,14.307,0,0,0,.656-1.53h0l3.1-8.438h-4L8.359-10.645a.458.458,0,0,1-.437.352h-.57a.516.516,0,0,1-.428-.352h0L4.359-18.19H.14L3.133-9.781A4.743,4.743,0,0,0,4.72-7.329h0a2.7,2.7,0,0,0,.76.323h0Z" transform="translate(127.747 18.456)"/>
          <path id="路径_33120" data-name="路径 33120" class="cls-2" transform="translate(142.913 17.55)"/>
          <path id="路径_33121" data-name="路径 33121" class="cls-2" d="M1.86-.906H12.445V-4.412H5.889V-7.928h5.882v-3.459H5.889v-3.288h6.423V-18.19H1.86Z" transform="translate(153.912 18.456)"/>
          <path id="路径_33122" data-name="路径 33122" class="cls-2" d="M5.029-11.273,12.051-.906h2.86V-18.19H11.453V-7.823L4.4-18.19H1.58V-.906H5.029Z" transform="translate(167.099 18.456)"/>
          <path id="路径_33123" data-name="路径 33123" class="cls-2" d="M1.86-.906H12.445V-4.412H5.889V-7.928h5.882v-3.459H5.889v-3.288h6.423V-18.19H1.86Z" transform="translate(183.414 18.456)"/>
          <path id="路径_33124" data-name="路径 33124" class="cls-2" d="M2-.913H6.029V-7.089h2.7a.411.411,0,0,1,.409.295h0a1.106,1.106,0,0,1,.057.143h0L11.065-.913h4.029L13.412-5.7a3.787,3.787,0,0,0-1.444-1.957h0a4.12,4.12,0,0,0,2.394-3.62h0a4.072,4.072,0,0,0,.029-.466h0v-2.1a3.952,3.952,0,0,0-2.727-4.162h0a6.681,6.681,0,0,0-2.309-.323h0L2-18.2ZM6.029-14.824h3.9a.4.4,0,0,1,.38.38h0v3.487a.4.4,0,0,1-.38.38h-3.9Z" transform="translate(196.58 18.463)"/>
          <path id="路径_33125" data-name="路径 33125" class="cls-2" d="M6.473-.644H9.058q4.874-.057,4.9-4.361h0v-5.654H8.241v3.345h1.91v2.67a.4.4,0,0,1-.38.38H6.036a.4.4,0,0,1-.38-.38h0V-14.47a.389.389,0,0,1,.38-.38h7.573v-3.62H6.473Q1.6-18.422,1.58-14.118h0v9.112Q1.628-.673,6.473-.644Z" transform="translate(212.141 18.47)"/>
          <path id="路径_33126" data-name="路径 33126" class="cls-2" d="M5.48-.906H9.509V-6.921a2.541,2.541,0,0,0,1.71-1.3h0a14.307,14.307,0,0,0,.656-1.53h0l3.1-8.438h-4L8.359-10.645a.458.458,0,0,1-.437.352h-.57a.516.516,0,0,1-.428-.352h0L4.359-18.19H.14L3.133-9.781A4.743,4.743,0,0,0,4.72-7.329h0a2.7,2.7,0,0,0,.76.323h0Z" transform="translate(227.318 18.456)"/>
          <path id="路径_33127" data-name="路径 33127" class="cls-2" transform="translate(242.484 17.55)"/>
          <path id="路径_33128" data-name="路径 33128" class="cls-2" d="M11.495-7.681V-11.14H5.889v-3.535h6.148V-18.19H1.86V-.906H5.889V-7.681Z" transform="translate(253.483 18.456)"/>
          <path id="路径_33129" data-name="路径 33129" class="cls-2" d="M2.15-.906H6.179V-18.19H2.15Z" transform="translate(265.689 18.456)"/>
          <path id="路径_33130" data-name="路径 33130" class="cls-2" d="M1.86-.906H12.445V-4.412H5.889V-7.928h5.882v-3.459H5.889v-3.288h6.423V-18.19H1.86Z" transform="translate(273.814 18.456)"/>
          <path id="路径_33131" data-name="路径 33131" class="cls-2" d="M11.771-.906V-4.412H5.889V-18.19H1.86V-.906Z" transform="translate(286.986 18.456)"/>
          <path id="路径_33132" data-name="路径 33132" class="cls-2" d="M5.889-14.843h4.276a.39.39,0,0,1,.38.38h0v9.825a.4.4,0,0,1-.38.38H5.889ZM1.86-18.2V-.913L9.595-.78q4.428.086,4.951-3.4h0a6.586,6.586,0,0,0,.086-1.083h0v-8.58q0-3.943-3.649-4.409h0a12.058,12.058,0,0,0-1.387-.076h0Z" transform="translate(298.798 18.463)"/>
        </g>
      </g>
    </g>
  </g>
</svg>
