<svg xmlns="http://www.w3.org/2000/svg" width="12.449" height="12.449" viewBox="0 0 12.449 12.449">
  <defs>
    <style>
      .cls-1 {
        fill: #707070;
      }
    </style>
  </defs>
  <g id="组_46348" data-name="组 46348" transform="translate(-64 -64)">
    <path id="路径_32591" data-name="路径 32591" class="cls-1" d="M464,737.019a.667.667,0,1,0,.667-.667A.667.667,0,0,0,464,737.019Z" transform="translate(-394.442 -663.01)"/>
    <path id="路径_32592" data-name="路径 32592" class="cls-1" d="M70.224,76.449a6.224,6.224,0,1,1,6.224-6.224A6.231,6.231,0,0,1,70.224,76.449Zm0-11.555a5.331,5.331,0,1,0,5.331,5.331A5.337,5.337,0,0,0,70.224,64.893Z"/>
    <path id="路径_32593" data-name="路径 32593" class="cls-1" d="M354.222,231.416a.445.445,0,0,1-.445-.445v-.752a2.7,2.7,0,0,1,1.047-1.773c.36-.36.732-.732.732-1.028a1.34,1.34,0,0,0-1.334-1.344,1.31,1.31,0,0,0-1.334,1.314.445.445,0,0,1-.889,0,2.223,2.223,0,0,1,4.446.03,2.532,2.532,0,0,1-.992,1.657c-.387.386-.786.785-.786,1.144v.752A.445.445,0,0,1,354.222,231.416Z" transform="translate(-283.998 -158.945)"/>
  </g>
</svg>
